<svg version="1.1" width="20.899999618530273" height="38.79999923706055" viewBox="0.20000004768371582 -0.550000011920929 20.899999618530273 38.79999923706055" xmlns="http://www.w3.org/2000/svg" xmlns:xlink="http://www.w3.org/1999/xlink">
  <!-- Exported by Scratch - http://scratch.mit.edu/ -->
  <path id="ID0.6086816429160535" fill="#2E2E2E" stroke="none" d="M 10.75 0.95 C 12.171 0.95 13.458 1.558 14.391 2.54 C 15.323 3.522 15.9 4.878 15.9 6.375 C 15.9 7.872 15.323 9.228 14.391 10.21 C 13.458 11.192 12.171 11.8 10.75 11.8 C 9.329 11.8 8.042 11.192 7.109 10.21 C 6.177 9.228 5.6 7.872 5.6 6.375 C 5.6 4.878 6.177 3.522 7.109 2.54 C 8.042 1.558 9.329 0.95 10.75 0.95 Z " stroke-width="1"/>
  <path id="ID0.23041497357189655" fill="none" stroke="#2E2E2E" stroke-width="3" stroke-linecap="round" d="M 10.6 10.9 L 10.7 22.8 L 16.65 29.75 L 17.4 36.6 "/>
  <path id="ID0.7865429394878447" fill="none" stroke="#2E2E2E" stroke-width="3" stroke-linecap="round" d="M 10.6 22.9 L 8.65 31.6 L 4.3 36.75 "/>
  <path id="ID0.45581132266670465" fill="none" stroke="#2E2E2E" stroke-width="3" stroke-linecap="round" d="M 10 14.45 L 5.5 16.35 L 1.7 23.1 "/>
  <path id="ID0.744470130186528" fill="none" stroke="#2E2E2E" stroke-width="3" stroke-linecap="round" d="M 11.5 14.4 L 16.5 16.9 L 19.6 21.8 "/>
</svg>