<svg version="1.1" width="14.199999809265137" height="39.64999771118164" viewBox="-0.699999988079071 -1.2999999970197678 14.199999809265137 39.64999771118164" xmlns="http://www.w3.org/2000/svg" xmlns:xlink="http://www.w3.org/1999/xlink">
  <!-- Exported by Scratch - http://scratch.mit.edu/ -->
  <path id="ID0.6086816429160535" fill="#2E2E2E" stroke="none" d="M 5.95 0.2 C 7.371 0.2 8.658 0.808 9.591 1.79 C 10.523 2.772 11.1 4.128 11.1 5.625 C 11.1 7.122 10.523 8.478 9.591 9.46 C 8.658 10.442 7.371 11.05 5.95 11.05 C 4.529 11.05 3.242 10.442 2.309 9.46 C 1.377 8.478 0.8 7.122 0.8 5.625 C 0.8 4.128 1.377 2.772 2.309 1.79 C 3.242 0.808 4.529 0.2 5.95 0.2 Z " stroke-width="1"/>
  <path id="ID0.23041497357189655" fill="none" stroke="#2E2E2E" stroke-width="3" stroke-linecap="round" d="M 5.9 9.25 L 6 21.15 L 10.7 29.5 L 11.15 36.75 "/>
  <path id="ID0.7865429394878447" fill="none" stroke="#2E2E2E" stroke-width="3" stroke-linecap="round" d="M 5.9 21.25 L 5.3 30.25 L 3.3 36.85 "/>
  <path id="ID0.45581132266670465" fill="none" stroke="#2E2E2E" stroke-width="3" stroke-linecap="round" d="M 5.3 12.9 L 2.5 17.2 L 1.65 23.4 "/>
  <path id="ID0.744470130186528" fill="none" stroke="#2E2E2E" stroke-width="3" stroke-linecap="round" d="M 6.8 12.75 L 10.15 18.35 L 12 22.65 "/>
</svg>