<svg version="1.1" width="13.300000190734863" height="39.599998474121094" viewBox="-0.800000011920929 -0.550000011920929 13.300000190734863 39.599998474121094" xmlns="http://www.w3.org/2000/svg" xmlns:xlink="http://www.w3.org/1999/xlink">
  <!-- Exported by Scratch - http://scratch.mit.edu/ -->
  <path id="ID0.6086816429160535" fill="#2E2E2E" stroke="none" d="M 5.85 0.95 C 7.271 0.95 8.558 1.558 9.491 2.54 C 10.423 3.522 11 4.878 11 6.375 C 11 7.872 10.423 9.228 9.491 10.21 C 8.558 11.192 7.271 11.8 5.85 11.8 C 4.429 11.8 3.142 11.192 2.209 10.21 C 1.277 9.228 0.7 7.872 0.7 6.375 C 0.7 4.878 1.277 3.522 2.209 2.54 C 3.142 1.558 4.429 0.95 5.85 0.95 Z " stroke-width="1"/>
  <path id="ID0.23041497357189655" fill="none" stroke="#2E2E2E" stroke-width="3" stroke-linecap="round" d="M 5.75 9.65 L 5.85 21.55 L 8 30.55 L 7.65 37.55 "/>
  <path id="ID0.7865429394878447" fill="none" stroke="#2E2E2E" stroke-width="3" stroke-linecap="round" d="M 5.75 21.65 L 6.25 30.55 L 4.85 37.55 "/>
  <path id="ID0.45581132266670465" fill="none" stroke="#2E2E2E" stroke-width="3" stroke-linecap="round" d="M 5.1 13.25 L 4.45 19.55 L 2.7 25.25 "/>
  <path id="ID0.744470130186528" fill="none" stroke="#2E2E2E" stroke-width="3" stroke-linecap="round" d="M 6.65 13.15 L 8.35 21.15 L 10.25 24.65 "/>
</svg>