<svg version="1.1" width="16.494199752807617" height="37.38410186767578" viewBox="0.7999999523162842 -1.4840999990701675 16.494199752807617 37.38410186767578" xmlns="http://www.w3.org/2000/svg" xmlns:xlink="http://www.w3.org/1999/xlink">
  <!-- Exported by Scratch - http://scratch.mit.edu/ -->
  <path id="ID0.6086816429160535" fill="#2E2E2E" stroke="none" d="M 10.9442 0.0159 C 12.2824 0.0159 13.4944 0.6463 14.3731 1.6645 C 15.2508 2.6827 15.7942 4.0887 15.7942 5.6409 C 15.7942 7.1931 15.2508 8.5991 14.3731 9.6173 C 13.4944 10.6355 12.2824 11.2659 10.9442 11.2659 C 9.6059 11.2659 8.3939 10.6355 7.5153 9.6173 C 6.6376 8.5991 6.0942 7.1931 6.0942 5.6409 C 6.0942 4.0887 6.6376 2.6827 7.5153 1.6645 C 8.3939 0.6463 9.6059 0.0159 10.9442 0.0159 Z " stroke-width="0.9904494383597415"/>
  <path id="ID0.23041497357189655" fill="none" stroke="#2E2E2E" stroke-width="3" stroke-linecap="round" d="M 9.65 6 L 6.6 17.5 L 8.4 26.35 L 8.5 34.4 "/>
  <path id="ID0.7865429394878447" fill="none" stroke="#2E2E2E" stroke-width="3" stroke-linecap="round" d="M 6.5 17.6 L 10.15 25.6 L 2.3 27.2 "/>
  <path id="ID0.45581132266670465" fill="none" stroke="#2E2E2E" stroke-width="3" stroke-linecap="round" d="M 6.3 8.9 L 3.7 13.15 L 3.7 19.15 "/>
  <path id="ID0.744470130186528" fill="none" stroke="#2E2E2E" stroke-width="3" stroke-linecap="round" d="M 8.25 9.45 L 8.3 16.5 L 13.15 19.3 "/>
</svg>