<svg version="1.1" width="19.255800247192383" height="36.61219787597656" viewBox="0.7999999523162842 -1.0121999979019165 19.255800247192383 36.61219787597656" xmlns="http://www.w3.org/2000/svg" xmlns:xlink="http://www.w3.org/1999/xlink">
  <!-- Exported by Scratch - http://scratch.mit.edu/ -->
  <path id="ID0.6086816429160535" fill="#2E2E2E" stroke="none" d="M 13.1058 0.4878 C 14.6096 0.4878 15.9716 1.0874 16.9589 2.0558 C 17.9452 3.0242 18.5558 4.3615 18.5558 5.8378 C 18.5558 7.3141 17.9452 8.6513 16.9589 9.6198 C 15.9716 10.5882 14.6096 11.1878 13.1058 11.1878 C 11.6021 11.1878 10.2401 10.5882 9.2527 9.6198 C 8.2664 8.6513 7.6558 7.3141 7.6558 5.8378 C 7.6558 4.3615 8.2664 3.0242 9.2527 2.0558 C 10.2401 1.0874 11.6021 0.4878 13.1058 0.4878 Z " stroke-width="1.0228488703240484"/>
  <path id="ID0.23041497357189655" fill="none" stroke="#2E2E2E" stroke-width="3" stroke-linecap="round" d="M 11.65 6.9 L 8.6 18.4 L 5.8 27 L 2.3 34.1 "/>
  <path id="ID0.7865429394878447" fill="none" stroke="#2E2E2E" stroke-width="3" stroke-linecap="round" d="M 8.5 18.5 L 15.65 23 L 17.4 30.9 "/>
  <path id="ID0.45581132266670465" fill="none" stroke="#2E2E2E" stroke-width="3" stroke-linecap="round" d="M 8.35 10.25 L 4.45 12.6 L 2.75 19.1 "/>
  <path id="ID0.744470130186528" fill="none" stroke="#2E2E2E" stroke-width="3" stroke-linecap="round" d="M 10.55 10.55 L 12.25 16.6 L 16.85 17.6 "/>
</svg>