<svg version="1.1" width="23.25" height="35.29999923706055" viewBox="0.2999999523162842 -1.199999988079071 23.25 35.29999923706055" xmlns="http://www.w3.org/2000/svg" xmlns:xlink="http://www.w3.org/1999/xlink">
  <!-- Exported by Scratch - http://scratch.mit.edu/ -->
  <path id="ID0.6086816429160535" fill="#2E2E2E" stroke="none" d="M 16.45 0.3 C 17.871 0.3 19.158 0.908 20.091 1.89 C 21.023 2.872 21.6 4.228 21.6 5.725 C 21.6 7.222 21.023 8.578 20.091 9.56 C 19.158 10.542 17.871 11.15 16.45 11.15 C 15.029 11.15 13.742 10.542 12.809 9.56 C 11.877 8.578 11.3 7.222 11.3 5.725 C 11.3 4.228 11.877 2.872 12.809 1.89 C 13.742 0.908 15.029 0.3 16.45 0.3 Z " stroke-width="1"/>
  <path id="ID0.23041497357189655" fill="none" stroke="#2E2E2E" stroke-width="3" stroke-linecap="round" d="M 14.65 5.9 L 11.6 17.4 L 16.9 25.1 L 20.5 32.6 "/>
  <path id="ID0.7865429394878447" fill="none" stroke="#2E2E2E" stroke-width="3" stroke-linecap="round" d="M 11.5 17.5 L 9.4 25 L 1.8 25.9 "/>
  <path id="ID0.45581132266670465" fill="none" stroke="#2E2E2E" stroke-width="3" stroke-linecap="round" d="M 11.35 9.25 L 7.1 11.65 L 5.25 18.05 "/>
  <path id="ID0.744470130186528" fill="none" stroke="#2E2E2E" stroke-width="3" stroke-linecap="round" d="M 13.55 9.55 L 17.05 16.05 L 22.05 14.15 "/>
</svg>